# xmcd
#
# Track frame offsets: 
#        150
#        18552
#        36244
#        54475
#        73195
#        83242
#        102159
#        116214
#        135215
#        149063
#        162150
#        183560
#        201364
#        220430
#        234577
#        247424
#        265568
#        284229
#        308582
#        324201
#        339648
#
# Disc length: 4790 seconds
#
# Revision: 4
# Processed by: cddbd v1.5.2PL0 Copyright (c) Steve Scherf et al.
# Submitted via: ExactAudioCopy v1.3
#
DISCID=4a12b415
DTITLE=Various Artist - Akella Presents - vol. 09 - Americana  CD1
DYEAR=2013
DGENRE=Blues
TTITLE0=MARK KNOPFLER - Devil Baby
TTITLE1=JIMMY THACKERY - Apache
TTITLE2=VINCE GILL - Workin' On A Big Chill
TTITLE3=BIG HOUSE - Ain't Slept In Our Bed
TTITLE4=J.J.CALE - Cajun Moon
TTITLE5=LYNYRD SKYNYRD - Can't Take That Away
TTITLE6=SHAVER - You're Too Much For Me
TTITLE7=DELTA MOON - Higher Ground
TTITLE8=GURF MORLIX - Blaze Foley's 113th Wet Dream
TTITLE9=THREE HANKS - 'Neath a Cold Gray Tomb of Stone
TTITLE10=HANK SHIZZOE - End Of The Trail
TTITLE11=GEORGE THOROGOOD - Wanted Man
TTITLE12=MARK KNOPFLER and EMMYLOU HARRIS - Beachcombing
TTITLE13=DIRE STRAITS - Iron Hand
TTITLE14=The UNDERDOGS - One Kiss
TTITLE15=ROGER GLOVER - Burn Me Up Slowly
TTITLE16=NEAL BLACK - The King Of San Antone
TTITLE17=RORY GALLAGHER - I'm Not Awake Yet
TTITLE18=PETER KARP - Runnin'
TTITLE19=JOHN KAY - Endless Commercial 
TTITLE20=JIMMY NAIL - Don't Wanna Go Home
EXTD=
EXTT0=
EXTT1=
EXTT2=
EXTT3=
EXTT4=
EXTT5=
EXTT6=
EXTT7=
EXTT8=
EXTT9=
EXTT10=
EXTT11=
EXTT12=
EXTT13=
EXTT14=
EXTT15=
EXTT16=
EXTT17=
EXTT18=
EXTT19=
EXTT20=
PLAYORDER=
